<svg xmlns="http://www.w3.org/2000/svg" width="480" height="720" viewBox="0 0 480 720">
  <defs>
    <linearGradient id="sky" x1="0" x2="0" y1="0" y2="1">
      <stop offset="0" stop-color="#08111f"/>
      <stop offset="0.52" stop-color="#17233b"/>
      <stop offset="1" stop-color="#10131f"/>
    </linearGradient>
    <radialGradient id="glow" cx="50%" cy="32%" r="55%">
      <stop offset="0" stop-color="#3ddbd9" stop-opacity="0.38"/>
      <stop offset="1" stop-color="#3ddbd9" stop-opacity="0"/>
    </radialGradient>
  </defs>
  <rect width="480" height="720" fill="url(#sky)"/>
  <rect width="480" height="720" fill="url(#glow)"/>
  <g fill="#f7fbff">
    <circle cx="46" cy="48" r="1.7" opacity="0.72"/>
    <circle cx="118" cy="96" r="1.2" opacity="0.5"/>
    <circle cx="218" cy="64" r="1.4" opacity="0.6"/>
    <circle cx="392" cy="82" r="1.6" opacity="0.75"/>
    <circle cx="430" cy="176" r="1.2" opacity="0.46"/>
    <circle cx="74" cy="206" r="1.5" opacity="0.62"/>
    <circle cx="154" cy="302" r="1.2" opacity="0.48"/>
    <circle cx="276" cy="254" r="1.6" opacity="0.68"/>
    <circle cx="346" cy="364" r="1.3" opacity="0.5"/>
    <circle cx="96" cy="456" r="1.4" opacity="0.58"/>
    <circle cx="404" cy="514" r="1.7" opacity="0.72"/>
    <circle cx="224" cy="602" r="1.3" opacity="0.52"/>
    <circle cx="312" cy="668" r="1.5" opacity="0.64"/>
  </g>
  <g stroke="#7dd3fc" stroke-opacity="0.16" stroke-width="1">
    <path d="M74 590 202 486 338 624"/>
    <path d="M34 420 148 352 264 416 400 320"/>
    <path d="M112 146 210 210 320 136 438 214"/>
  </g>
</svg>
