<svg xmlns="http://www.w3.org/2000/svg" width="480" height="720" viewBox="0 0 480 720">
  <defs>
    <linearGradient id="space" x1="0" x2="0" y1="0" y2="1">
      <stop offset="0" stop-color="#020617"/>
      <stop offset="0.5" stop-color="#0f172a"/>
      <stop offset="1" stop-color="#111827"/>
    </linearGradient>
    <radialGradient id="lane" cx="50%" cy="48%" r="58%">
      <stop offset="0" stop-color="#0ea5e9" stop-opacity="0.18"/>
      <stop offset="1" stop-color="#0ea5e9" stop-opacity="0"/>
    </radialGradient>
  </defs>
  <rect width="480" height="720" fill="url(#space)"/>
  <rect width="480" height="720" fill="url(#lane)"/>
  <g fill="#f8fafc">
    <circle cx="28" cy="40" r="1.3" opacity="0.7"/>
    <circle cx="114" cy="86" r="1.6" opacity="0.5"/>
    <circle cx="210" cy="28" r="1.1" opacity="0.6"/>
    <circle cx="326" cy="120" r="1.4" opacity="0.7"/>
    <circle cx="438" cy="68" r="1.2" opacity="0.55"/>
    <circle cx="64" cy="184" r="1.7" opacity="0.72"/>
    <circle cx="166" cy="238" r="1.1" opacity="0.52"/>
    <circle cx="278" cy="204" r="1.5" opacity="0.65"/>
    <circle cx="420" cy="286" r="1.8" opacity="0.7"/>
    <circle cx="102" cy="348" r="1.3" opacity="0.48"/>
    <circle cx="236" cy="396" r="1.6" opacity="0.68"/>
    <circle cx="354" cy="442" r="1.2" opacity="0.58"/>
    <circle cx="42" cy="514" r="1.4" opacity="0.62"/>
    <circle cx="184" cy="572" r="1.8" opacity="0.76"/>
    <circle cx="306" cy="628" r="1.1" opacity="0.5"/>
    <circle cx="446" cy="674" r="1.5" opacity="0.66"/>
  </g>
  <g stroke="#38bdf8" stroke-opacity="0.18" stroke-width="2">
    <path d="M76 0 58 720"/>
    <path d="M404 0 422 720"/>
  </g>
</svg>
